<?xml version="1.0" encoding="UTF-8" standalone="no"?>
<svg
   width="490.07074pt"
   height="332.50089pt"
   version="1.1"
   viewBox="0 0 490.07074 332.50089"
   id="svg634"
   sodipodi:docname="iron_white.svg"
   inkscape:version="1.2.2 (732a01da63, 2022-12-09)"
   xmlns:inkscape="http://www.inkscape.org/namespaces/inkscape"
   xmlns:sodipodi="http://sodipodi.sourceforge.net/DTD/sodipodi-0.dtd"
   xmlns="http://www.w3.org/2000/svg"
   xmlns:svg="http://www.w3.org/2000/svg">
  <defs
     id="defs638" />
  <sodipodi:namedview
     id="namedview636"
     pagecolor="#ffffff"
     bordercolor="#000000"
     borderopacity="0.25"
     inkscape:showpageshadow="2"
     inkscape:pageopacity="0.0"
     inkscape:pagecheckerboard="0"
     inkscape:deskcolor="#d1d1d1"
     inkscape:document-units="pt"
     showgrid="false"
     inkscape:zoom="0.89785714"
     inkscape:cx="180.42959"
     inkscape:cy="35.640414"
     inkscape:window-width="1350"
     inkscape:window-height="925"
     inkscape:window-x="173"
     inkscape:window-y="0"
     inkscape:window-maximized="0"
     inkscape:current-layer="svg634" />
  <path
     d="m 472.56975,8e-4 h -350 c -6.2539,0 -12.031,3.3359 -15.156,8.75 -3.125,5.4141 -3.125,12.086 0,17.5 3.125,5.414 8.9023,8.75 15.156,8.75 h 332.5 v 105 h -105 v -52.5 c 0,-4.6406 -1.8438,-9.0938 -5.125,-12.375 -3.2812,-3.2812 -7.7344,-5.125 -12.375,-5.125 h -105 c -4.6406,0 -9.0938,1.8438 -12.375,5.125 -3.2812,3.2812 -5.125,7.7344 -5.125,12.375 v 52.5 h -22.574 c -28.098,-0.008 -55.684,7.5039 -79.902,21.75 -24.215,14.246 -44.18,34.711 -57.824,59.273 l -47.426,85.402 c -3.125,5.4141 -3.125,12.086 0,17.5 3.1836,5.3672 8.9844,8.6367 15.227,8.5742 h 455 c 4.6406,0 9.0938,-1.8438 12.375,-5.125 3.2812,-3.2812 5.125,-7.7344 5.125,-12.375 V 17.5 c 0,-4.6406 -1.8438,-9.0938 -5.125,-12.375 C 481.66455,1.8438 477.21135,0 472.57075,0 Z m -227.5,105 h 70 v 35 h -70 z m 210,192.5 h -407.75 l 33.074,-59.5 c 10.613,-19.098 26.141,-35.008 44.969,-46.086 18.832,-11.078 40.285,-16.918 62.133,-16.914 h 267.57 z"
     id="path632"
     style="fill:#ffffff" />
</svg>
